<svg width="1600" height="900" viewBox="0 0 1600 900" fill="none" xmlns="http://www.w3.org/2000/svg">
  <rect width="1600" height="900" fill="#F7C600"/>
  <rect x="0" y="0" width="1600" height="900" fill="url(#bgDots)" opacity="0.18"/>
  <path d="M0 150L380 0H640L0 320V150Z" fill="#111111"/>
  <path d="M1600 740L1180 900H920L1600 560V740Z" fill="#111111"/>
  <path d="M1260 0L1600 0V180L980 480H760L1260 0Z" fill="#E6382E"/>
  <path d="M0 900V710L690 360H910L260 900H0Z" fill="#FFF3B0"/>

  <g opacity="0.9">
    <path d="M127 588L320 390" stroke="#111111" stroke-width="16" stroke-linecap="round"/>
    <path d="M192 702L461 428" stroke="#111111" stroke-width="12" stroke-linecap="round"/>
    <path d="M40 724L222 542" stroke="#111111" stroke-width="10" stroke-linecap="round"/>
    <path d="M1170 130L1445 20" stroke="#111111" stroke-width="14" stroke-linecap="round"/>
    <path d="M1112 214L1538 42" stroke="#111111" stroke-width="10" stroke-linecap="round"/>
  </g>

  <rect x="94" y="110" width="598" height="76" rx="10" fill="#111111"/>
  <text x="128" y="162" fill="#F7C600" font-family="'Noto Sans SC', 'Microsoft YaHei', sans-serif" font-size="36" font-weight="800">
    Liyang Intensity Coach
  </text>

  <g transform="rotate(-4 126 252)">
    <rect x="126" y="252" width="1000" height="180" rx="18" fill="#FFF7D1" stroke="#111111" stroke-width="10"/>
    <text x="174" y="344" fill="#111111" font-family="'Noto Sans SC', 'Microsoft YaHei', sans-serif" font-size="76" font-weight="900">
      李阳式高强度
    </text>
    <text x="174" y="412" fill="#E6382E" font-family="'Noto Sans SC', 'Microsoft YaHei', sans-serif" font-size="76" font-weight="900">
      英语训练教练 Skill
    </text>
  </g>

  <g transform="rotate(-4 210 486)">
    <rect x="210" y="486" width="760" height="146" rx="18" fill="#111111"/>
    <text x="252" y="550" fill="#F7C600" font-family="'Noto Sans SC', 'Microsoft YaHei', sans-serif" font-size="36" font-weight="800">
      不是解释，是开口
    </text>
    <text x="252" y="603" fill="#FFFFFF" font-family="'Noto Sans SC', 'Microsoft YaHei', sans-serif" font-size="36" font-weight="800">
      不是理解，是训练
    </text>
  </g>

  <g>
    <rect x="1048" y="430" width="386" height="112" rx="16" fill="#E6382E" stroke="#111111" stroke-width="8"/>
    <text x="1086" y="482" fill="#FFF8DD" font-family="'Noto Sans SC', 'Microsoft YaHei', sans-serif" font-size="28" font-weight="900">
      中文框架先行
    </text>
    <text x="1086" y="520" fill="#FFF8DD" font-family="'Noto Sans SC', 'Microsoft YaHei', sans-serif" font-size="28" font-weight="900">
      方法词驱动训练
    </text>
  </g>

  <g>
    <rect x="990" y="576" width="462" height="162" rx="16" fill="#FFF7D1" stroke="#111111" stroke-width="8"/>
    <text x="1032" y="637" fill="#111111" font-family="'Noto Sans SC', 'Microsoft YaHei', sans-serif" font-size="26" font-weight="800">
      脱口而出 / 三最口腔肌肉训练法
    </text>
    <text x="1032" y="680" fill="#111111" font-family="'Noto Sans SC', 'Microsoft YaHei', sans-serif" font-size="26" font-weight="800">
      句子就是一切 / 把脸皮放进口袋里
    </text>
    <text x="1032" y="720" fill="#E6382E" font-family="'Noto Sans SC', 'Microsoft YaHei', sans-serif" font-size="24" font-weight="900">
      README / Prompt / Samples / Persona Axes
    </text>
  </g>

  <circle cx="1450" cy="182" r="74" fill="#FFF7D1" stroke="#111111" stroke-width="10"/>
  <text x="1406" y="195" fill="#111111" font-family="'Arial Black', 'Noto Sans SC', sans-serif" font-size="54" font-weight="900">
    V1
  </text>

  <defs>
    <pattern id="bgDots" x="0" y="0" width="30" height="30" patternUnits="userSpaceOnUse">
      <circle cx="8" cy="8" r="2.6" fill="#111111"/>
    </pattern>
  </defs>
</svg>
